<svg width="389" height="100" viewBox="0 0 389 100" fill="none" xmlns="http://www.w3.org/2000/svg">
<path d="M165.05 73.61V18.8H158.41V17.06H200.19V35.88H198.57C198.57 30.36 197.667 26.27 195.86 23.61C193.687 20.41 190.147 18.8067 185.24 18.8H174V73.61H181.42V75.35H158.42V73.61H165.05Z" fill="#F68B1F"/>
<path d="M203.45 17.06H226.45V18.8H219.27L236.27 56.33L247.06 27.83C247.771 26.1494 248.171 24.3536 248.24 22.53C248.24 20.05 246.31 18.8 242.45 18.8V17.06H257.28V18.8C255.16 18.8 253.63 19.23 252.68 20.09C251.443 21.4059 250.508 22.9757 249.94 24.69L235.34 62.69C231.84 71.81 227.507 76.37 222.34 76.37C219.525 76.3905 216.792 75.4206 214.62 73.63C213.461 72.745 212.523 71.6038 211.88 70.2956C211.236 68.9874 210.904 67.5479 210.91 66.09C210.91 62.49 212.64 60.7 216.09 60.7C218.61 60.7 219.87 62.2 219.87 65.2C219.809 66.4399 219.288 67.6126 218.41 68.49C217.591 69.2432 217.07 70.2651 216.94 71.37C217.016 71.8059 217.178 72.2223 217.417 72.5949C217.655 72.9675 217.966 73.2888 218.33 73.54C219.309 74.3967 220.58 74.8443 221.88 74.79C225.38 74.79 228.493 72.2433 231.22 67.15L209.4 18.8H203.45V17.06Z" fill="#F68B1F"/>
<path d="M280.74 73.61V18.8C268.54 18.8 262.44 24.3567 262.44 35.47H260.81V17.06H309.81V35.47H308.18C308.18 24.3633 302.107 18.8067 289.96 18.8V73.61H297.22V75.35H273.48V73.61H280.74Z" fill="#F68B1F"/>
<path d="M369.82 100C381.27 87.11 389 66.54 389 50.77C389 40 385.87 20.55 369.82 0L367.77 1C377.28 17.33 378.71 31.44 378.71 50.77C378.71 54.66 378.92 83.23 367.98 98.77L369.82 100Z" fill="#F68B1F"/>
<path d="M343.82 92.19C353.48 81.31 360 64 360 50.65C360 41.56 357.32 25.15 343.78 7.81L342.06 8.66C350.06 22.44 351.29 34.34 351.29 50.66C351.29 53.94 351.46 78.04 342.23 91.17L343.82 92.19Z" fill="#F68B1F"/>
<path d="M321.15 84.37C329.02 75.52 334.36 61.37 334.36 50.53C334.36 43.12 332.18 29.75 321.15 15.63L319.74 16.31C326.28 27.54 327.26 37.24 327.26 50.53C327.26 53.2 327.4 72.84 319.88 83.53L321.15 84.37Z" fill="#F68B1F"/>
<path d="M42.36 56H43.9L43.13 75.4H41.59C41.6367 73.0333 40.6067 71.8467 38.5 71.84C37.9333 71.84 36.2067 72.6 33.32 74.12C30.4687 75.6323 27.2875 76.4156 24.06 76.4C19.4366 76.3902 14.9593 74.7788 11.39 71.84C7.63685 68.8754 4.74095 64.9647 3.00001 60.51C1.66668 57.1767 1.00001 52.7267 1.00001 47.16C0.906563 42.4519 1.64106 37.7639 3.17001 33.31C4.87677 28.389 7.93735 24.0494 12 20.79C15.9128 17.7141 20.7635 16.076 25.74 16.15C28.105 16.1082 30.4514 16.5755 32.62 17.52C34.0133 18.2558 35.5335 18.7207 37.1 18.89C37.9375 18.9667 38.7735 18.7285 39.4448 18.2218C40.116 17.7152 40.5743 16.9765 40.73 16.15H42.35V35.05H41.58C40.44 23.4967 35.34 17.7233 26.28 17.73C24.4659 17.7371 22.6712 18.1042 21 18.81C14.46 21.4767 11.1933 28.6833 11.2 40.43V55C11.0947 58.9777 11.8841 62.9282 13.51 66.56C14.2611 68.2972 15.3724 69.8552 16.7704 71.1308C18.1685 72.4065 19.8215 73.3708 21.62 73.96C23.0617 74.4658 24.5728 74.7458 26.1 74.79C30.58 74.79 34.3133 72.79 37.3 68.79C39.9499 64.9737 41.6817 60.5964 42.36 56V56Z" fill="#4D4D4F"/>
<path d="M64.2 18.8V73.61H70.2V75.35H48.6V73.61H55.24V18.8H48.6V17.06H105.67V18.8H99V73.61H105.65V75.35H84V73.61H89.94V18.8H64.2Z" fill="#4D4D4F"/>
<path d="M141 11.09H141.85C141.85 16.01 140.95 19.7133 139.15 22.2C137.19 24.8 133.997 26.4033 129.57 27.01C124.477 27.6767 120.77 28.5333 118.45 29.58C114.85 31.2589 112 34.2124 110.45 37.87C109.215 40.7466 108.634 43.8616 108.75 46.99V48.4H110.07C113.77 40.44 118.943 36.46 125.59 36.46C131.25 36.46 135.717 38.2567 138.99 41.85C142.263 45.4433 143.897 50.28 143.89 56.36C143.89 62.22 142.203 67.0167 138.83 70.75C137.166 72.5939 135.119 74.0509 132.831 75.0184C130.544 75.9858 128.072 76.4404 125.59 76.35C123.637 76.3041 121.705 75.9393 119.87 75.27C115.203 73.67 111.73 69.58 109.45 63C108.091 58.5406 107.466 53.8899 107.6 49.23C107.6 36.19 109.837 27.4033 114.31 22.87C116.397 20.8469 119.107 19.5888 122 19.3C127.66 18.5333 130.903 18.0367 131.73 17.81C136.31 16.87 139.113 15.5967 140.14 13.99C140.706 13.1291 141.005 12.1203 141 11.09V11.09ZM116.68 50.09V61.09C116.68 65.56 117.14 68.75 118.07 70.68C119.403 73.44 121.963 74.82 125.75 74.82C129.417 74.82 131.95 73.25 133.35 70.11C134.383 67.8967 134.9 64.6133 134.9 60.26V50C135.041 47.0684 134.314 44.1602 132.81 41.64C131.764 40.094 130.221 38.9518 128.437 38.4026C126.653 37.8533 124.735 37.93 123 38.62C118.807 40.2067 116.71 44 116.71 50L116.68 50.09Z" fill="#4D4D4F"/>
</svg>
